<svg width="144" height="144" viewBox="0 0 144 144" fill="none" xmlns="http://www.w3.org/2000/svg">
<path d="M50.9118 11.0032H89L49.4604 128.844C49.2582 129.446 48.964 130.013 48.5883 130.523C48.2134 131.035 47.7612 131.483 47.2479 131.853C46.7346 132.224 46.1682 132.511 45.5665 132.706C44.9647 132.9 44.3371 133 43.7064 133H14.0641C13.1019 133 12.1526 132.77 11.2965 132.327C10.4396 131.885 9.69989 131.244 9.13878 130.457C8.57731 129.67 8.20999 128.76 8.06714 127.803C7.92393 126.845 8.01082 125.866 8.31815 124.949L45.1561 15.1556C45.3573 14.5538 45.6517 13.9877 46.0283 13.4765C46.4032 12.9654 46.8569 12.5173 47.3686 12.1469C47.8819 11.7764 48.4483 11.4885 49.0501 11.2944C49.6519 11.1003 50.2794 11 50.9102 11V11.0016L50.9118 11.0032Z" fill="url(#paint0_linear_2_2)"/>
<path d="M121 132.998H86.828C86.4469 132.998 86.0659 132.963 85.6897 132.89C85.3151 132.819 84.9469 132.712 84.5916 132.571C84.2363 132.43 83.8955 132.255 83.5723 132.051C83.2496 131.846 82.9466 131.61 82.6672 131.348L43.889 94.8739C43.4789 94.4881 43.1932 93.9872 43.0691 93.436C42.9451 92.8848 42.9887 92.3087 43.1943 91.7828C43.3999 91.2569 43.758 90.8055 44.2218 90.4874C44.6865 90.17 45.2347 90 45.7958 90H106.143L120.997 133L121 132.998Z" fill="#0078D4"/>
<path d="M89.1468 11.0001L62.4777 90.0519L106.053 90.0422L121 133H86.9193C86.5668 132.997 86.2143 132.964 85.8667 132.901C85.519 132.838 85.1778 132.746 84.8463 132.623C84.1814 132.38 83.563 132.023 83.0179 131.57L56.8123 106.989L49.4763 128.733C49.2864 129.276 49.0257 129.792 48.7006 130.266C48.0489 131.22 47.1576 131.983 46.1174 132.477C45.5994 132.724 45.0511 132.899 44.487 133H14.0726C13.1005 133.003 12.1412 132.77 11.277 132.321C10.4125 131.871 9.66845 131.219 9.1076 130.42C8.54676 129.621 8.18564 128.697 8.05478 127.728C7.92438 126.758 8.0276 125.772 8.35575 124.85L45.1436 15.235C45.3351 14.6219 45.6232 14.0445 45.9966 13.5236C46.3684 13.0027 46.8223 12.5433 47.3373 12.1648C47.8524 11.7862 48.4253 11.4918 49.0321 11.2945C49.6389 11.0971 50.2746 10.9968 50.9136 11.0001H89.1484H89.1468Z" fill="url(#paint1_linear_2_2)"/>
<path d="M136.679 124.949C136.989 125.867 137.076 126.845 136.933 127.803C136.789 128.76 136.42 129.67 135.855 130.457C135.29 131.244 134.545 131.884 133.682 132.327C132.819 132.769 131.862 133 130.892 133H88.1177C89.0873 133 90.0439 132.769 90.908 132.327C91.7706 131.885 92.5164 131.243 93.0823 130.457C93.6481 129.671 94.0178 128.76 94.1621 127.803C94.3064 126.845 94.2189 125.866 93.9092 124.949L56.7882 15.1492C56.3796 13.9397 55.601 12.8885 54.5621 12.1437C54.0465 11.7732 53.4758 11.4869 52.871 11.2928C52.2663 11.0987 51.634 11 51 11H93.773C94.4086 11 95.0393 11.0987 95.6456 11.2928C96.2504 11.4869 96.8211 11.7748 97.3383 12.1437C97.8539 12.5141 98.3095 12.9622 98.6873 13.4717C99.0651 13.9813 99.3602 14.5475 99.5645 15.1492L136.685 124.949H136.679Z" fill="url(#paint2_linear_2_2)"/>
<defs>
<linearGradient id="paint0_linear_2_2" x1="64.8125" y1="20.0455" x2="24.8528" y2="137.467" gradientUnits="userSpaceOnUse">
<stop stop-color="#114A8B"/>
<stop offset="1" stop-color="#0669BC"/>
</linearGradient>
<linearGradient id="paint1_linear_2_2" x1="77.161" y1="74.8155" x2="67.9936" y2="77.9094" gradientUnits="userSpaceOnUse">
<stop stop-opacity="0.3"/>
<stop offset="0.1" stop-opacity="0.2"/>
<stop offset="0.3" stop-opacity="0.1"/>
<stop offset="0.6" stop-opacity="0.1"/>
<stop offset="1" stop-opacity="0"/>
</linearGradient>
<linearGradient id="paint2_linear_2_2" x1="71.8912" y1="16.6132" x2="115.492" y2="133.035" gradientUnits="userSpaceOnUse">
<stop stop-color="#3CCBF4"/>
<stop offset="1" stop-color="#2892DF"/>
</linearGradient>
</defs>
</svg>
