<svg version="1.2" xmlns="http://www.w3.org/2000/svg" viewBox="0 0 759 833" width="759" height="833">
	<title>Screenshot 2024-08-14 132420-svg</title>
	<style>
		.s0 { fill: #e60240 } 
		.s1 { fill: #e60341 } 
		.s2 { fill: #e60340 } 
		.s3 { fill: #e60442 } 
		.s4 { fill: #fefbfc } 
		.s5 { fill: #fefdfd } 
		.s6 { fill: #e60a46 } 
	</style>
	<path id="Layer" class="s0" d="m234 444c15.8 0 31.7 0 48 0 1.2 3.7 2.4 7.3 3.3 11.1q0.4 1.4 0.8 2.8 0.3 1.5 0.7 3c8.2 31.6 18 60.7 47.6 78.3 17.7 9.4 43.5 11.4 62.6 5.8 19.8-6.8 37-19 48-37 2-4.2 3.5-8.6 5-13q0.4-1.2 0.8-2.4 1.2-3.3 2.2-6.6 0.4-1.3 0.9-2.6c2.8-8.6 4.6-17.2 6.2-26.1q0.3-1.5 0.6-3 0.2-1.4 0.5-2.7c1.1-3.5 2-5.2 4.8-7.6 3.6-0.7 7.2-0.6 10.9-0.5q1.6 0 3.2 0 5.1 0.1 10.1 0.2 3.5 0 6.9 0.1 8.5 0 16.9 0.2c-1.6 17.1-3.8 34-6.4 50.9-2.6 17-5.1 34-7 51.2q-0.2 1.9-0.4 3.9-0.7 6.5-1.2 13-0.1 1.5-0.3 3.1c-1.4 17.6-2 35.1-1.9 52.8q0 5.9 0 11.8c0 17.6 0.4 34.7 3.4 52.1q0.3 1.9 0.7 3.9c2.3 13.6 5.9 26.3 11.4 39 3.8 9 7.3 17.4 4.7 27.3-4.3 7.1-11.4 11-19 14-3.5 0.6-6.8 0.7-10.3 0.6q-1.5 0-3 0-5 0.1-9.9 0-3.5 0-7.1 0-9.6 0-19.3 0-9 0-18.1 0-17.9 0-35.9-0.1-17.4 0-34.8 0-19 0-38 0-1 0-2 0-2 0-4 0-7 0-14 0-9.5 0-18.9-0.1-3.5 0-6.9 0-4.7 0-9.5 0-1.3 0-2.7 0c-8.6-0.1-16.3-2-23.5-6.8q-1.3-0.9-2.7-1.8c-4.6-3.4-4.6-3.4-6.4-5.8-1.4-13.4 3.5-28 7.9-40.6 5.3-15.4 9-31.2 11.4-47.4q0.3-1.6 0.5-3.2c2.2-16 2.4-32 2.4-48q0-1.6 0-3.1c0-16.3-0.5-32.5-2.2-48.7q-0.1-1.1-0.2-2.2c-2.4-22.6-5.6-44.9-10.1-67.1q-1.4-7.4-2.9-14.8-0.6-3.3-1.2-6.7c-1.9-9.4-2.6-17.4-2.6-27.2z"/>
	<path id="Layer" class="s1" d="m396.9 86.4c20.4 7.9 41 10.5 62.8 11.3q1.3 0 2.6 0.1 1.2 0 2.4 0c4.9 0.4 4.9 0.4 7.3 1.2 1.3 2.1 1.3 2.1 2.2 4.9 0.6 1.5 0.6 1.5 1.1 3.1q0.6 1.6 1.1 3.3 0.6 1.7 1.2 3.5 1.7 5.1 3.4 10.2 0.4 1.3 0.9 2.7c3.5 11.2 6.6 22.5 9.6 33.9 1.4 5.3 2.9 10.7 4.5 16 3.6 11.6 5.8 23.5 8 35.4 0.2 1.1 0.2 1.1 0.4 2.1 4.5 23.3 2 48.8-6.4 70.9q-0.4 1-0.8 2.1c-4.9 12.6-11.7 22.5-21 32.5-2.1 2.3-4.2 4.7-6.3 7.1-3.7 4.1-7.6 7.7-11.9 11.3q-1.4 1.2-2.8 2.5c-6.5 5.6-13.2 10.8-20.1 15.9-4.8 3.6-9.4 7.2-14 10.9-14.7 11.9-26.2 19.1-45.4 18.9q-1.5 0-3.1 0c-25-0.4-42-12.6-59.6-29.2q-2-1.8-4.1-3.6-4.4-3.8-8.7-7.8c-3.5-3.1-7-6.1-10.6-9-20.2-16.5-37.5-37.1-44.2-63q-0.4-1.3-0.7-2.5-0.3-1.5-0.7-3.1-0.3-1-0.5-2c-2-8.2-1.9-16.5-1.8-24.9q0-1.2 0-2.4c0.1-11.9 0.7-23.1 3.3-34.7q0.8-3.7 1.5-7.3c2.7-12.3 5.5-24.5 9.3-36.6 1.9-6.1 3.6-12.2 5.1-18.4 2.4-9.1 4.9-18 7.7-27 1.7-5.2 3.1-10.4 4.4-15.7q5.9-0.5 11.8-0.9 1.7-0.2 3.5-0.3c6.3-0.5 12.5-0.9 18.7-1.1 19.7-0.7 37.4-5.9 54.9-14.6 11.9-5.5 23.6-0.3 35 4.3z"/>
	<path id="Layer" class="s1" d="m614.7 252.6q4.1 0 8.2 0c12.4 0 23.2 1 34.1 7.4 0.9 0.5 0.9 0.5 1.9 1.1 8.7 5.6 11.6 14.4 14 24.1 2.5 11.6 1.8 23.8 1.7 35.7q0 5.8 0 11.6 0 9.8-0.1 19.5 0 11.2 0 22.4 0 10.9 0 21.8 0 4.6 0 9.1c0 15.5-0.2 30.5-3.5 45.7q-0.6 3.3-1.2 6.6c-2.6 10.9-8.4 22.1-15.8 30.4q-0.8 1-1.7 1.9c-16.3 17.8-42.5 27.2-66.1 28.3q-6.1 0-12.2 0-2.2 0-4.5 0-5.7 0-11.5-0.1-5.9 0-11.9 0-11.5 0-23.1-0.1 0.2-3.8 0.5-7.7 0-1.1 0.1-2.2c0.3-5.2 0.8-10.3 1.6-15.4q0.2-1.2 0.4-2.5c2.5-15.5 6.1-31 10.4-46.2 20.1-1.9 39.9-2.2 60-2q0-1.1 0-2.3c-0.1-5.5 0-10.8 0.7-16.2 0.6-5 0.7-9.9 1-14.9 0.8-14.8 1.8-29.6 2.9-44.3q0.3-3.3 0.5-6.5 0.3-4.7 0.7-9.3 0.1-1.4 0.2-2.8c0.7-8.6 3.1-17.1 9.6-23.1 6.3-4.2 14-6.7 21.2-8.6 3.4-0.8 3.4-0.8 5.4-3.6 4-7.7 5.6-15.7 7.2-24.1 0.6-3.3 0.6-3.3 1.6-6.3-7.3 0-14.5 0-22 0 0.1 2.2 0.2 4.3 0.2 6.6 0.1 6.1-0.4 9.5-4.2 14.4-2 2-2 2-5.9 2.2q-2.5 0-5 0-1.4 0-2.7 0-4.3 0-8.5-0.1-2.9 0-5.8 0-7 0-14.1-0.1-1-1.9-1.9-3.8c-0.6-1-0.6-1-1.1-2.1-3.7-7.9-4.6-18-1.9-26.4 2.8-6.4 8.4-12.4 14.8-15.6 8.3-2.9 17-2.6 25.8-2.5z"/>
	<path id="Layer" class="s2" d="m125.1 252.7q3.9 0.1 7.9 0.1 2.5 0 5.1 0c1.1 0 1.1 0 2.3 0 10.3 0.1 18.4 1.4 26.6 8.2 5.5 8 7.2 15.4 7.3 24.9 0.1 1.3 0.1 1.3 0.1 2.7 0 4.3 0 6.7-2.2 10.4-4.3 3.9-7.3 4.3-12.9 4.3q-1.2 0-2.3 0-2.4 0-4.9 0-3.6 0-7.3 0.1-2.3 0-4.7 0-1 0-2.2 0c-5.6-0.1-9.3-1.4-13.8-4.8-1.4-2-1.4-3.2-1.4-5.6 0-1 0-1 0-2.1q0.1-1.3 0.1-2.6c0.1-2.7 0.1-5.5 0.2-8.3-7.3 0-14.5 0-22 0 3.3 17.2 3.3 17.2 12 32q0.7 1 1.4 2c4 5 8.8 6.1 14.8 7.8 8.1 2.3 8.1 2.3 10.8 5.6 1 2.6 1.6 4.9 2 7.6 0.3 1.1 0.3 1.1 0.5 2.3 0.6 3.5 0.8 7.1 1 10.6 0.3 5.4 0.3 5.4 1 10.8 0.6 3.9 0.9 7.8 1.2 11.8q0.2 2.5 0.4 4.9 0.3 3.9 0.6 7.7 0.3 3.8 0.6 7.5 0.1 1.2 0.2 2.3c0.2 2.9 0.4 5.7 1 8.5 0.7 4 0.6 7.9 0.6 11.8q0 1.2 0 2.4 0 4.4 0 8.7c-0.1 6.5-0.1 13-0.1 19.7 20.8 0 41.6 0 63 0 1.8 8.1 3.5 16.2 5.4 24.6 0.5 2.5 1.1 5 1.7 7.6 6.1 27.9 6.1 27.9 5.9 41.8q-8.5 0.2-16.9 0.4-2.9 0.1-5.7 0.2c-37.9 1-37.9 1-49.7-0.8q-1.3-0.3-2.7-0.5c-23-3.5-44.7-13.1-59-32.3-12.9-18.5-16.5-37.7-16.4-59.7q0-2.4 0-4.8 0-6.3 0-12.7 0-6.7 0-13.4 0-11.3 0-22.5 0-13 0-26 0-11.2 0-22.3 0-6.7 0-13.4 0-6.2 0-12.5 0-2.3 0-4.6 0-3.1 0-6.2 0-1.8 0-3.6c1-8.7 6.4-15.2 12.4-21.3 11.4-9.1 24.1-9.4 38.1-9.3z"/>
	<path id="Layer" fill-rule="evenodd" class="s3" d="m396.9 86.4c20.4 7.9 41 10.5 62.8 11.3q1.3 0 2.6 0.1 1.2 0 2.4 0c4.9 0.4 4.9 0.4 7.3 1.2 1.3 2.1 1.3 2.1 2.2 4.9 0.6 1.5 0.6 1.5 1.1 3.1q0.6 1.6 1.1 3.3 0.6 1.7 1.2 3.5 1.7 5.1 3.4 10.2 0.4 1.3 0.9 2.7c3.5 11.2 6.6 22.5 9.6 33.9 1.4 5.3 2.9 10.7 4.5 16 3.6 11.6 5.8 23.5 8 35.4 0.2 1.1 0.2 1.1 0.4 2.1 4.5 23.3 2 48.8-6.4 70.9q-0.4 1-0.8 2.1c-4.9 12.6-11.7 22.5-21 32.5-2.1 2.3-4.2 4.7-6.3 7.1-3.7 4.1-7.6 7.7-11.9 11.3q-1.4 1.2-2.8 2.5c-6.5 5.6-13.2 10.8-20.1 15.9-4.8 3.6-9.4 7.2-14 10.9-14.7 11.9-26.2 19.1-45.4 18.9q-1.5 0-3.1 0c-25-0.4-42-12.6-59.6-29.2q-2-1.8-4.1-3.6-4.4-3.8-8.7-7.8c-3.5-3.1-7-6.1-10.6-9-20.2-16.5-37.5-37.1-44.2-63q-0.4-1.3-0.7-2.5-0.3-1.5-0.7-3.1-0.3-1-0.5-2c-2-8.2-1.9-16.5-1.8-24.9q0-1.2 0-2.4c0.1-11.9 0.7-23.1 3.3-34.7q0.8-3.7 1.5-7.3c2.7-12.3 5.5-24.5 9.3-36.6 1.9-6.1 3.6-12.2 5.1-18.4 2.4-9.1 4.9-18 7.7-27 1.7-5.2 3.1-10.4 4.4-15.7q5.9-0.5 11.8-0.9 1.7-0.2 3.5-0.3c6.3-0.5 12.5-0.9 18.7-1.1 19.7-0.7 37.4-5.9 54.9-14.6 11.9-5.5 23.6-0.3 35 4.3zm-47.5 28.2c-10.9 4.1-21.3 5.8-32.8 7.1-1.7 0.2-1.7 0.2-3.4 0.4q-3.4 0.4-6.7 0.7c-1.6 0.2-1.6 0.2-3.1 0.4q-1.4 0.1-2.8 0.2c-3 0.7-5.1 1.8-7.6 3.6-1.5 2.8-1.5 2.8-2.4 6.2q-0.3 0.9-0.6 1.9c-2.8 9.3-5 18.8-7.3 28.2-1.2 4.7-2.4 9.3-3.7 14q-2.5 9.1-4.8 18.3-1 3.8-2.1 7.5c-7.5 26.6-6.3 57.3 6.5 82 1.7 2.8 3.5 5.3 5.4 7.9q0.9 1.3 1.9 2.6c10.1 13 22.2 24.3 35.4 34.2q4.1 3 8.1 6.1 0.8 0.6 1.6 1.2 4.5 3.5 9 7.2c7.3 6.1 14.3 11.8 23 15.7q1.5 0.7 3 1.4c12.4 2.6 20.7-1.8 31-8.4 3.5-2.5 6.8-5.1 10-8q3.3-2.9 6.6-5.7 0.8-0.7 1.7-1.5c6.7-5.8 13.8-11 20.8-16.4 23.2-17.6 39.1-40.2 43.9-69.4 0.4-4.9 0.5-9.8 0.4-14.8q0-0.9 0-1.9c-0.1-10-0.9-19-3.7-28.6-0.9-3.4-1.7-6.9-2.6-10.3-3-12.6-6.2-25.1-9.9-37.5-1.7-5.4-3-10.8-4.4-16.2q-0.6-2.2-1.2-4.5-0.6-2.3-1.2-4.7c-1-4-1.7-6-5.2-8.4-5.4-1.8-11.2-2.1-16.9-2.7-16.5-1.9-32.1-4.9-47.5-11.4-3-1.1-5.7-1.6-8.8-2q-1.4-0.2-2.8-0.4c-9.9-0.7-17.7 2.5-26.8 6z"/>
	<path id="Layer" fill-rule="evenodd" class="s4" d="m394.1 113.4c14 5.5 28.2 7.5 43.1 9.1 13.8 1.6 13.8 1.6 17.8 4.5 1.8 3.3 2.7 6.8 3.6 10.4q0.5 1.6 0.9 3.1 1.3 4.8 2.5 9.5 0.4 1.4 0.7 2.8 2 7.5 3.8 15c1.9 7.9 4.1 15.7 6.2 23.5q0.5 1.7 1 3.5 0.9 3.4 1.8 6.8c3.3 11.8 4.9 22.7 4.9 35q0 1 0 2c-0.1 28.3-11.5 52-31.1 72.3-4.1 4.1-8.6 7.4-13.4 10.8-6.1 4.4-12 9-17.7 14-30 26.4-30 26.4-44 27.2-15.3-1.6-26.9-12.7-38.2-22-4-3.3-8-6.5-12.2-9.5-26.1-19.5-50.6-43.7-55.6-77.4-1.8-23 2-44.9 7.8-67q0.5-2 1-4 1.5-5.5 3-11 0.4-1.4 0.8-2.8 1.8-6.4 3.6-12.8c1.4-4.9 2.7-9.9 4-14.9q0.3-1.2 0.7-2.5 0.6-2.2 1.1-4.5c1.1-4.3 2.1-7 5.8-9.5 6.6-2.1 13.7-2.5 20.5-3.2 14.9-1.8 28.7-4.9 42.6-10.7 11.6-4.7 23.7-2.2 35 2.3zm-66.7 29c-4.1 1.1-8.2 1.9-12.4 2.6-3.5 0.6-3.5 0.6-5.9 3.3q-0.4 1.4-0.9 2.8-0.6 1.7-1.1 3.3c-0.6 1.8-0.6 1.8-1.1 3.6q-0.6 1.6-1.1 3.3c-1.4 4.2-2.7 8.5-3.9 12.7q-0.5 1.6-1 3.2c-4.3 14.9-8.1 29.5-10 44.8q-0.3 1.9-0.5 3.8c-1.7 13.2-1.9 27 3.5 39.2q0.8 1.7 1.5 3.5c6.7 14.6 17.1 25.1 29.4 35q5.1 4.2 10.1 8.4 0.9 0.8 1.8 1.6c3.7 3.1 7.2 6.4 10.8 9.7 12.1 11.3 12.1 11.3 27.1 16.2q1.2 0 2.5 0.1c7.3-1.2 12.9-5.9 18.5-10.6 1-0.8 1-0.8 2.1-1.7q3.1-2.6 6.2-5.2 0.9-0.8 1.8-1.5 3.3-2.8 6.6-5.6c3.2-2.8 6.5-5.4 9.8-8 17-13.9 30.7-28 35.8-49.9 0.3-0.9 0.3-0.9 0.5-1.8 3.9-17.9-0.2-37.8-4.5-55.2-0.4-1.5-0.4-1.5-0.7-2.9-3.3-13.8-7.3-27.3-11.6-40.7-0.7-2.4-0.7-2.4-1.1-4.5-0.3-2.1-0.3-2.1-1.6-4.9-2.9-1.3-5.1-2-8.1-2.7q-1.2-0.3-2.5-0.6-2.5-0.6-5-1.1-3.3-0.8-6.6-1.7c-3.9-1-7.8-2-11.8-2.9q-1.8-0.5-3.6-0.9c-25.1-5.7-48.5-0.9-73 5.3z"/>
	<path id="Layer" class="s1" d="m330 396c1 0.3 1 0.3 2 0.5q4.6 1.2 9.2 2.4c1.6 0.5 1.6 0.5 3.2 0.9q1.5 0.4 3.1 0.8 1.4 0.4 2.8 0.7c7.7 1.9 15.1 2 22.9 2q1.1 0 2.2 0c11.1 0 21-0.9 31.6-4.3q3.3-0.9 6.6-1.8 2.2-0.6 4.4-1.2 0.2 0.9 0.4 1.8 0.9 4.1 1.9 8.2 0.3 1.4 0.6 2.8c1.9 8.4 4.5 15 10.4 21.3q1.2 1.3 2.4 2.6c2 2 4 3.6 6.4 5.3 2 1.7 2.8 2.5 3.4 5.2 0.1 2.7-0.1 5.2-0.5 7.8-0.1 1.2-0.1 1.2-0.3 2.4-1.3 9.6-4.8 18.3-7.7 27.6-40.3 0-80.5 0-122 0-11.3-27.5-11.3-27.5-9-40 2.8-3.7 6.1-5.7 10-8 9.2-6.5 11.8-17.5 14-28q0.5-2.4 1.1-4.9 0.2-1.1 0.5-2.3 0.2-0.9 0.4-1.8z"/>
	<path id="Layer" class="s5" d="m386.3 184.3c1.8 0.8 1.8 0.8 3.7 1.7q1.3 0.5 2.7 1c2.3 2 2.3 2 2.7 4.1 0.1 2.7 0 5.4-0.1 8.1q0 1.4-0.1 2.8 0 3.5-0.2 7c0.9 0 0.9 0 1.7-0.1q4-0.1 7.9-0.2c1.4-0.1 1.4-0.1 2.8-0.1 4.3-0.1 7.2 0.2 11.2 2 2.9 2.9 2.9 6 3.1 10q0 3.9-0.1 7.8 0 1.9 0 3.9c-0.2 7.9-0.3 13.9-5.7 20.1-3.9 3.3-7.6 2.7-12.5 2.7-2.8-0.1-5.6-0.1-8.4-0.1 0 6.6 0 13.2 0 20-4.3 2.2-7.5 2.3-12.2 2.3q-1.1 0-2.3 0-2.5 0-5 0-3.8 0-7.6 0.1-2.5 0-4.9 0c-1.1 0-1.1 0-2.3 0-5.2-0.1-5.2-0.1-7.7-1.6-1.2-2.2-1.5-3.8-1.7-6.2q-0.2-1.3-0.3-2.6-0.1-1.3-0.2-2.7-0.1-1.3-0.2-2.7-0.3-3.3-0.6-6.6-1.2 0.1-2.4 0.1c-11 0.3-11 0.3-15.6-3.1-6.3-6.5-6.2-11-6.2-19.7q0-1.6 0-3.3c0-13.4 0-13.4 4.3-18.4 4-2.2 7.2-2 11.7-1.9 1.2 0.1 1.2 0.1 2.4 0.1q2.9 0.1 5.8 0.2c-0.1-1.2-0.1-1.2-0.1-2.3-0.3-13.1-0.3-13.1 3.1-17.7 2.8-2.1 5.8-3.6 9-5 6.1-3 17.9-1.8 24.2 0.3z"/>
	<path id="Layer" class="s6" d="m325 503c32.3 0 64.7 0 98 0-5.1 10.1-14.7 19.2-25.3 23.3-3.2 1-6.4 1.9-9.7 2.7q-1.2 0.3-2.4 0.6c-15.6 2.4-33.3 0.4-46.6-8.6-3.3-3.1-6.2-6.4-9-10q-1.5-1.8-3.1-3.5c-1.9-2.5-1.9-2.5-1.9-4.5z"/>
</svg>