<svg width="144" height="144" viewBox="0 0 144 144" fill="none" xmlns="http://www.w3.org/2000/svg">
<path d="M59.2313 11.1903C60.7434 10.9309 62.1803 10.5584 63.6362 10.4523C66.8691 10.2169 70.115 9.94345 73.349 10.0102C76.2059 10.0692 79.0598 10.5204 81.9043 10.8845C85.7891 11.3818 89.5246 12.5033 93.198 13.8392C97.3891 15.3634 101.401 17.2798 105.115 19.7617C107.583 21.4112 110.068 23.0838 112.297 25.0346C114.854 27.2722 117.241 29.734 119.505 32.2764C121.363 34.3628 123.04 36.6362 124.608 38.9573C127.415 43.115 129.598 47.6083 131.301 52.3463C132.478 55.6186 133.398 58.9586 134.017 62.3705C134.426 64.6309 134.676 66.9343 134.806 69.2294C134.969 72.0915 135.068 74.9707 134.945 77.8316C134.841 80.2492 134.401 82.6541 134.074 85.0597C133.549 88.9223 132.447 92.6377 131.134 96.2896C129.483 100.877 127.358 105.236 124.42 109.125C122.811 111.255 121.067 113.307 119.185 115.193C116.221 118.164 112.828 120.59 109.145 122.613C105.536 124.595 101.747 126.072 97.7363 126.938C95.8837 127.338 94.0011 127.681 92.1155 127.819C89.6403 128.001 87.1389 128.119 84.6662 127.969C80.3848 127.711 76.2034 126.935 72.6069 124.306C70.7617 122.957 69.8453 121.023 69.2878 118.873C68.5426 115.999 68.7243 113.102 69.3245 110.257C70.5287 104.547 71.8574 98.8646 73.1406 93.1723C74.2613 88.2008 75.3966 83.2328 76.5133 78.2604C77.5519 73.6357 78.5838 69.0093 79.6015 64.3799C80.7997 58.9289 81.9565 53.4685 83.1747 48.0221C84.1535 43.6456 85.1983 39.2842 86.2115 34.9155C86.6836 32.8801 87.1529 30.8439 87.6141 28.806C87.6525 28.636 87.6192 28.4494 87.6192 28.2241C87.4281 28.2026 87.25 28.14 87.0893 28.1706C84.1317 28.735 81.1759 29.3084 78.2206 29.8842C75.3407 30.4452 72.463 31.0177 69.582 31.5731C67.0978 32.052 64.6069 32.4973 62.1291 33.0075C61.8599 33.0629 61.5121 33.4153 61.4468 33.6895C60.4968 37.6799 59.582 41.6789 58.6732 45.6792C58.1208 48.1108 57.5933 50.5483 57.0416 53.0422C51.0034 53.0422 44.9978 53.0422 38.9809 53.0422C37.7458 58.4373 36.5253 63.7687 35.2809 69.2047C41.3279 69.2047 47.2543 69.2047 53.2498 69.2047C52.5407 72.1698 51.8514 75.0408 51.1677 77.9131C49.8578 83.4164 48.5441 88.9188 47.2457 94.4249C46.4969 97.6002 45.7289 100.772 45.0548 103.964C44.4811 106.68 43.9377 109.41 43.555 112.159C43.29 114.063 43.1652 116.015 43.2523 117.933C43.4286 121.815 44.1612 125.612 46.0199 129.065C46.8479 130.603 47.9802 131.974 48.9742 133.421C49.07 133.56 49.1645 133.701 49.1731 134C48.7274 133.84 48.276 133.694 47.8367 133.518C43.4338 131.75 39.2692 129.524 35.4066 126.758C33.5268 125.413 31.7192 123.956 29.9557 122.457C28.4525 121.18 26.9852 119.842 25.6317 118.406C22.2799 114.851 19.3517 110.961 16.8534 106.743C14.2268 102.309 12.1914 97.6111 10.6982 92.6799C9.75929 89.579 9.13856 86.4052 8.63993 83.195C7.97057 78.8858 7.8866 74.5519 8.11297 70.2358C8.28756 66.9069 8.87109 63.5849 9.476 60.2979C10.151 56.6298 11.3287 53.0905 12.7459 49.6398C14.4688 45.4448 16.5153 41.413 19.1747 37.7475C21.0165 35.209 23.0174 32.7795 25.0584 30.3982C28.4772 26.4094 32.5486 23.1659 36.9088 20.2911C42.9023 16.3394 49.3797 13.4976 56.3529 11.8259C57.2867 11.602 58.2273 11.4067 59.2313 11.1903ZM87.1518 62.9256C87.6645 64.8229 88.6119 66.4377 90.019 67.8266C93.9456 71.7027 100.224 71.8327 104.314 67.8356C106.644 65.5585 107.742 62.7189 107.391 59.3706C107.053 56.1418 105.577 53.6116 102.95 51.7776C100.681 50.1931 98.1684 49.5867 95.4242 50.0841C91.7761 50.7454 89.2177 52.8512 87.6589 56.1826C86.6691 58.2982 86.6655 60.5504 87.1518 62.9256Z" fill="#40A944"/>
</svg>
